<svg width="7" height="12" viewBox="0 0 7 12" fill="currentColor" xmlns="http://www.w3.org/2000/svg"><path d="M1.38356 11.77C1.23288 11.9188 1.0411 12 0.815069 12C0.363014 12 4.76837e-07 11.6483 4.76837e-07 11.2018C4.76837e-07 10.9786 0.0958905 10.7756 0.253425 10.6201L5.04795 5.99324L0.253425 1.37993C0.0958905 1.22435 4.76837e-07 1.01466 4.76837e-07 0.798196C4.76837e-07 0.351747 0.363014 0 0.815069 0C1.0411 0 1.23288 0.0811725 1.38356 0.229989L6.71233 5.37091C6.90411 5.54679 6.99315 5.76325 7 6C7 6.23675 6.90411 6.43968 6.71233 6.62232L1.38356 11.77Z"></path></svg>